<svg xmlns="http://www.w3.org/2000/svg" width="84" height="84" viewBox="0 0 84 84">
  <g id="Grupo_70911" data-name="Grupo 70911" transform="translate(-343 -4593)" opacity="0.7">
    <rect id="Rectángulo_9396" data-name="Rectángulo 9396" width="84" height="84" transform="translate(343 4593)" fill="none"/>
    <g id="Grupo_70761" data-name="Grupo 70761" transform="translate(-430.066 4554.485)">
      <path id="Trazado_118086" data-name="Trazado 118086" d="M791.019,40.515s-1.606,9.849-8.029,13.382c0,0-3.747,1.071-4.924.749v66.587h33.829v-48.6s-5.353,0-7.065-8.029.642-18.52.642-18.52Z" transform="translate(0)" fill="#bf3976"/>
      <path id="Trazado_118087" data-name="Trazado 118087" d="M989.994,40.515l-14.024,5.46s0,16-1.764,20.641a14.334,14.334,0,0,0-.545,1.824,6.241,6.241,0,0,1-3.793,4.62l-.642,48.174h34.043v-77.4s-6.2.016-8.243-.25C993.886,43.435,991.743,43.727,989.994,40.515Z" transform="translate(-151.084)" fill="#bf3976"/>
    </g>
  </g>
</svg>
