<svg xmlns="http://www.w3.org/2000/svg" xmlns:xlink="http://www.w3.org/1999/xlink" width="364.385" height="330.577" viewBox="0 0 364.385 330.577">
  <defs>
    <radialGradient id="radial-gradient" cx="0.5" cy="0.5" r="0.5" gradientTransform="matrix(-0.969, -0.249, -0.249, 0.969, -376.837, -47.612)" gradientUnits="objectBoundingBox">
      <stop offset="0" stop-color="#ee9e80"/>
      <stop offset="1" stop-color="#ffc4a2"/>
    </radialGradient>
    <radialGradient id="radial-gradient-2" cx="0.5" cy="0.5" r="0.5" gradientTransform="matrix(-0.969, -0.249, -0.249, 0.969, -384.995, -48.643)" xlink:href="#radial-gradient"/>
    <clipPath id="clip-path">
      <path id="Trazado_117084" data-name="Trazado 117084" d="M6513.819,3888.089a13.468,13.468,0,0,1-25.365-7.34A91.881,91.881,0,0,0,6513.819,3888.089Z" fill="#9dcbe5"/>
    </clipPath>
  </defs>
  <g id="Grupo_71004" data-name="Grupo 71004" transform="translate(-951.419 -189.193)">
    <g id="Grupo_70267" data-name="Grupo 70267" transform="translate(-5273.808 -3586.68)">
      <g id="Grupo_60594" data-name="Grupo 60594">
        <path id="Trazado_100598" data-name="Trazado 100598" d="M6431.076,3790.5c53.613.472,175.628,241.182,129.41,295.531s-348.007-8.517-334.841-86.158S6377.464,3790.027,6431.076,3790.5Z" fill="#fff" opacity="0.2" style="isolation: isolate"/>
        <path id="Trazado_100599" data-name="Trazado 100599" d="M6465.923,3783.215s137.338,115.082,121.393,293.946" fill="none" stroke="#fff" stroke-linecap="round" stroke-linejoin="round" stroke-width="2" stroke-dasharray="12"/>
      </g>
      <g id="Grupo_70273" data-name="Grupo 70273">
        <g id="Grupo_70271" data-name="Grupo 70271">
          <path id="Trazado_116976" data-name="Trazado 116976" d="M6348.957,4082.332c-2.392,1.263-5.068.368-7.956-2.662-2.3-2.412-4.81-6.222-7.676-11.647-2.789-5.281-4.552-9.634-5.239-12.938-.853-4.1-.1-6.807,2.231-8.04,4.188-2.212,9.448,2.6,15.632,14.31,2.47,4.677,4.8,9.095,5.73,12.649C6352.741,4078.079,6351.851,4080.8,6348.957,4082.332Zm-18.156-34.37c-3.58,1.891-2.422,8.477,3.441,19.577,2.821,5.34,5.277,9.074,7.509,11.416,2.564,2.69,4.763,3.495,6.722,2.461,5.4-2.85,1.5-10.232-3.441-19.577C6341,4054.208,6335.261,4045.606,6330.8,4047.962Z" fill="#c7cfd1"/>
        </g>
        <g id="Grupo_70272" data-name="Grupo 70272">
          <path id="Trazado_116977" data-name="Trazado 116977" d="M6348.957,4082.332c-2.705,1.428-6.311-.072-8.041-3.346s-.935-7.1,1.769-8.527,6.312.073,8.041,3.346S6351.661,4080.9,6348.957,4082.332Zm-5.788-10.956c-2.2,1.161-2.8,4.358-1.336,7.126s4.441,4.075,6.64,2.914,2.8-4.359,1.336-7.127S6345.368,4070.214,6343.169,4071.376Z" fill="#c7cfd1"/>
        </g>
        <path id="Trazado_116978" data-name="Trazado 116978" d="M6341.326,4052.411l-3.229,1.706a3.89,3.89,0,0,0-6.325,3.341l-2.86,1.51c-2.122-6-2.266-10.74,1.286-12.617C6333.691,4044.506,6337.547,4047.285,6341.326,4052.411Z" fill="#03a5d6"/>
        <path id="Trazado_116979" data-name="Trazado 116979" d="M6329.026,4056.912s-2.042-6.361,1.192-9.153A15.231,15.231,0,0,0,6329.026,4056.912Z" fill="#fff"/>
      </g>
      <g id="Grupo_70276" data-name="Grupo 70276">
        <g id="Grupo_70274" data-name="Grupo 70274">
          <path id="Trazado_116980" data-name="Trazado 116980" d="M6469.921,4074c.926-3.554,3.259-7.972,5.73-12.649,6.184-11.708,11.443-16.522,15.632-14.31,2.333,1.233,3.084,3.938,2.231,8.04-.687,3.3-2.45,7.657-5.24,12.938-2.866,5.425-5.376,9.235-7.675,11.647-2.888,3.03-5.564,3.925-7.956,2.662C6469.749,4080.8,6468.859,4078.079,6469.921,4074Zm6.646-12.165c-4.936,9.345-8.835,16.727-3.44,19.577,1.959,1.034,4.158.229,6.722-2.461,2.232-2.342,4.688-6.076,7.509-11.416,5.863-11.1,7.021-17.686,3.441-19.577C6486.339,4045.606,6480.6,4054.208,6476.567,4061.839Z" fill="#c7cfd1"/>
        </g>
        <g id="Grupo_70275" data-name="Grupo 70275">
          <path id="Trazado_116981" data-name="Trazado 116981" d="M6470.874,4073.8c1.729-3.273,5.336-4.774,8.041-3.346s3.5,5.254,1.768,8.527-5.336,4.774-8.04,3.346S6469.145,4077.078,6470.874,4073.8Zm.917.484c-1.463,2.768-.863,5.965,1.336,7.127s5.178-.146,6.64-2.914.863-5.965-1.336-7.126S6473.253,4071.521,6471.791,4074.289Z" fill="#c7cfd1"/>
        </g>
        <path id="Trazado_116982" data-name="Trazado 116982" d="M6480.274,4052.411l3.229,1.706a3.89,3.89,0,0,1,6.325,3.341l2.859,1.51c2.123-6,2.267-10.74-1.285-12.617C6487.909,4044.506,6484.053,4047.285,6480.274,4052.411Z" fill="#bf3976"/>
        <path id="Trazado_116983" data-name="Trazado 116983" d="M6492.574,4056.912s2.042-6.361-1.193-9.153A15.225,15.225,0,0,1,6492.574,4056.912Z" fill="#fff"/>
      </g>
      <g id="Grupo_70288" data-name="Grupo 70288" transform="translate(308.425 215.78)">
        <path id="Trazado_116984" data-name="Trazado 116984" d="M6247,3862.475s-1.151,14.333-10.535,21.233l-19.834,5.115s-13.661-4.1-19.307-13.509C6197.322,3875.314,6216.645,3865.863,6247,3862.475Z" transform="translate(-2.551 -9.532)" fill="#abcad3"/>
        <g id="Grupo_70279" data-name="Grupo 70279" transform="translate(6190.808 3838.127)">
          <g id="Grupo_70278" data-name="Grupo 70278">
            <g id="Grupo_70277" data-name="Grupo 70277">
              <path id="Trazado_116985" data-name="Trazado 116985" d="M6194.772,3865.782a18.882,18.882,0,0,1,8.206,2.458,20.207,20.207,0,0,1,8.481,8.55,5.8,5.8,0,0,0,5.468,3.072,34.13,34.13,0,0,0,7.743-1.12,33.659,33.659,0,0,0,6.888-2.563,5.813,5.813,0,0,0,3.373-5.386,20.183,20.183,0,0,1,3.3-11.614,18.757,18.757,0,0,1,6.214-6.235,32.5,32.5,0,0,0-1.75-8.575q-.836-3.214-1.816-6.241l-50.073,12.915c.421,2.178.912,4.4,1.487,6.641A31.364,31.364,0,0,0,6194.772,3865.782Z" transform="translate(-6190.808 -3838.127)" fill="#feffff"/>
            </g>
          </g>
        </g>
        <g id="Grupo_70280" data-name="Grupo 70280" transform="translate(6224.075 3839.529)">
          <path id="Trazado_116986" data-name="Trazado 116986" d="M6252.867,3855.9l12.875-3.32a.268.268,0,1,0-.134-.518l-12.874,3.32a5.8,5.8,0,0,1-2.886-11.187l12.54-3.234a.267.267,0,0,0-.133-.518l-12.541,3.235a6.336,6.336,0,0,0,3.152,12.223Z" transform="translate(-6245.479 -3840.431)" fill="#abcad3"/>
        </g>
        <g id="Grupo_70281" data-name="Grupo 70281" transform="translate(6191.433 3848.829)">
          <path id="Trazado_116987" data-name="Trazado 116987" d="M6194.855,3871.426l12.874-3.32a6.337,6.337,0,0,0-3.153-12.224l-12.539,3.234a.268.268,0,1,0,.134.519l12.54-3.234a5.8,5.8,0,0,1,2.884,11.187l-12.873,3.32a.268.268,0,1,0,.134.518Z" transform="translate(-6191.835 -3855.714)" fill="#abcad3"/>
        </g>
        <g id="Grupo_70284" data-name="Grupo 70284" transform="translate(6220.443 3847.63)">
          <g id="Grupo_70282" data-name="Grupo 70282" transform="translate(0.171 0.068)">
            <path id="Trazado_116988" data-name="Trazado 116988" d="M6241.733,3856.911c.231.1.484.193.757.286l.072-.237c-.268-.091-.524-.187-.769-.291-1.107-.468-1.91-1.062-1.729-1.777a.811.811,0,0,1,.129-.282,1.344,1.344,0,0,1,.941-.468h0a5.358,5.358,0,0,1,1.294,0,16.449,16.449,0,0,1,2.364.442,15.428,15.428,0,0,1,2.574.842c.183.083.348.167.5.252a3.626,3.626,0,0,1,.389.255,1.547,1.547,0,0,1,.52.6c0,.006,0,.012.007.019a.843.843,0,0,1,.048.486c0,.019-.008.037-.012.056-.192.766-.849.972-1.8.9a8.766,8.766,0,0,1-1.028-.147l-.072.236a7.944,7.944,0,0,0,1.364.169c1,.015,1.585-.346,1.775-1.1a1.086,1.086,0,0,0-.049-.7l-.017-.04a1.871,1.871,0,0,0-.594-.686l0,0a3.9,3.9,0,0,0-.4-.265,12.834,12.834,0,0,0-3.134-1.12,17,17,0,0,0-2.364-.444,7.044,7.044,0,0,0-.931-.038c-1,.035-1.584.362-1.737.972C6239.631,3855.6,6240.271,3856.3,6241.733,3856.911Z" transform="translate(-6239.791 -3853.856)" fill="#c7cfd1"/>
          </g>
          <g id="Grupo_70283" data-name="Grupo 70283" transform="translate(6.297 1.633)">
            <path id="Trazado_116989" data-name="Trazado 116989" d="M6251.123,3859.054a1.348,1.348,0,1,1,1.876-.893A1.486,1.486,0,0,1,6251.123,3859.054Zm.06-.24a1.1,1.1,0,1,0-1.051-1.374A1.242,1.242,0,0,0,6251.183,3858.813Z" transform="translate(-6249.858 -3856.429)" fill="#c7cfd1"/>
          </g>
          <path id="Trazado_116990" data-name="Trazado 116990" d="M6241.581,3857.035l.213-.845a.928.928,0,0,1,.416-1.654l.188-.749c-1.511-.152-2.618.083-2.852,1.012C6239.317,3855.713,6240.179,3856.45,6241.581,3857.035Z" transform="translate(-6239.51 -3853.745)" fill="#03a5d6"/>
          <path id="Trazado_116991" data-name="Trazado 116991" d="M6242.162,3854.048s-1.59-.113-2.054.794A3.635,3.635,0,0,1,6242.162,3854.048Z" transform="translate(-6239.744 -3853.862)" fill="#fff"/>
        </g>
        <g id="Grupo_70287" data-name="Grupo 70287" transform="translate(6206.536 3850.031)">
          <g id="Grupo_70285" data-name="Grupo 70285" transform="translate(0.003 0.103)">
            <path id="Trazado_116992" data-name="Trazado 116992" d="M6223.923,3858.207c-.43-.459-1.1-.464-1.991-.01a6.8,6.8,0,0,0-.795.482,16.682,16.682,0,0,0-1.854,1.533,12.807,12.807,0,0,0-2.2,2.5,3.631,3.631,0,0,0-.225.427l0,0a1.865,1.865,0,0,0-.188.888l0,.043a1.081,1.081,0,0,0,.3.636c.532.571,1.216.606,2.087.106a7.974,7.974,0,0,0,1.113-.809l-.178-.172a8.544,8.544,0,0,1-.83.627c-.8.52-1.474.656-2.012.079l-.037-.042a.836.836,0,0,1-.192-.45.059.059,0,0,1,0-.019,1.54,1.54,0,0,1,.162-.78,3.77,3.77,0,0,1,.217-.411c.089-.147.193-.3.313-.461a15.379,15.379,0,0,1,1.845-1.981,16.615,16.615,0,0,1,1.855-1.531,5.348,5.348,0,0,1,1.136-.622h0a1.344,1.344,0,0,1,1.052-.046.807.807,0,0,1,.249.184c.5.539.088,1.446-.654,2.392-.163.208-.343.417-.531.625l.177.174c.194-.215.368-.42.523-.617C6224.241,3859.708,6224.465,3858.788,6223.923,3858.207Z" transform="translate(-6216.661 -3857.859)" fill="#c7cfd1"/>
          </g>
          <g id="Grupo_70286" data-name="Grupo 70286" transform="translate(0 4.396)">
            <path id="Trazado_116993" data-name="Trazado 116993" d="M6216.963,3867.467a1.631,1.631,0,1,1,2.074-.126A1.485,1.485,0,0,1,6216.963,3867.467Zm2.161-2.018a1.391,1.391,0,1,0-.256,1.711A1.242,1.242,0,0,0,6219.124,3865.449Z" transform="translate(-6216.656 -3864.915)" fill="#c7cfd1"/>
          </g>
          <path id="Trazado_116994" data-name="Trazado 116994" d="M6226.225,3861.011l-.595-.636a.928.928,0,0,0-1.164-1.248l-.526-.563c1.248-.864,2.33-1.194,2.984-.494S6227.168,3859.82,6226.225,3861.011Z" transform="translate(-6219.507 -3857.691)" fill="#03a5d6"/>
          <path id="Trazado_116995" data-name="Trazado 116995" d="M6224.729,3858.64s1.337-.868,2.182-.3A3.63,3.63,0,0,0,6224.729,3858.64Z" transform="translate(-6219.817 -3857.87)" fill="#fff"/>
        </g>
      </g>
      <g id="Grupo_70322" data-name="Grupo 70322">
        <g id="Grupo_70310" data-name="Grupo 70310">
          <path id="Trazado_117012" data-name="Trazado 117012" d="M6479.976,3917.868s-.221-1.171,3.48-6.456,7.316-9.061,8.365-7.488,1.374,2.537-1.131,6.752,8.533-7.1,10.348-5.674-3.249,7.392-3.249,7.392,7-3.4,8.162-2.1-4.77,6.664-5.76,7.461,8.817-1.973,9.394-.427.04,2.742-8.29,5.39a.243.243,0,0,0-.147.12c-.116.231.236.721,4.313.915,3.192.152,4.322,2.191,1.726,3.553-2.789,1.463-9.179,2.928-12.34,3.439a23.794,23.794,0,0,1-10.36-1.051C6482.346,3928.83,6479.62,3920.877,6479.976,3917.868Z" fill="#ffc4a2"/>
          <g id="Grupo_70309" data-name="Grupo 70309">
            <path id="Trazado_117013" data-name="Trazado 117013" d="M6488.886,3922a.527.527,0,0,1-.328-.136.537.537,0,0,1-.042-.757c2.107-2.354,1.668-7.765,1.663-7.819a.536.536,0,1,1,1.068-.093c.021.241.484,5.927-1.932,8.627A.532.532,0,0,1,6488.886,3922Z" fill="#e29a7a"/>
          </g>
        </g>
        <g id="Grupo_70312" data-name="Grupo 70312">
          <path id="Trazado_117014" data-name="Trazado 117014" d="M6323.338,3917.923s.221-1.171-3.48-6.456-7.316-9.061-8.365-7.488-1.374,2.537,1.131,6.752-8.533-7.1-10.348-5.674,3.249,7.392,3.249,7.392-7-3.4-8.162-2.1,4.77,6.664,5.76,7.461-8.817-1.973-9.394-.427-.04,2.742,8.29,5.39a.249.249,0,0,1,.148.12c.115.231-.237.721-4.314.915-3.192.152-4.322,2.191-1.726,3.553,2.79,1.463,9.179,2.928,12.341,3.439a23.808,23.808,0,0,0,10.359-1.05C6320.968,3928.885,6323.694,3920.932,6323.338,3917.923Z" fill="#ffc4a2"/>
          <g id="Grupo_70311" data-name="Grupo 70311">
            <path id="Trazado_117015" data-name="Trazado 117015" d="M6314.428,3922.055a.53.53,0,0,0,.328-.135.536.536,0,0,0,.042-.758c-2.106-2.353-1.667-7.765-1.663-7.819a.536.536,0,1,0-1.068-.093c-.021.241-.484,5.927,1.932,8.627A.532.532,0,0,0,6314.428,3922.055Z" fill="#e29a7a"/>
          </g>
        </g>
        <path id="Trazado_117016" data-name="Trazado 117016" d="M6435.567,3925.1s35.22-4.773,46.1-13.3c0,0,.829,17.165,9.49,22.161,0,0-29.041,12.617-47.952,12.271Z" fill="#73bfc9"/>
        <path id="Trazado_117017" data-name="Trazado 117017" d="M6367.551,3925.27s-35.22-4.772-46.095-13.3c0,0-.829,17.166-9.491,22.161,0,0,29.042,12.618,47.953,12.271Z" fill="#73bfc9"/>
        <path id="Trazado_117018" data-name="Trazado 117018" d="M6438.409,3924.9h-73.518a113.641,113.641,0,0,0-5.565,55.45s-.05,32.93,42.324,32.92c42.714.01,42.344-32.546,42.344-32.546A115.568,115.568,0,0,0,6438.409,3924.9Z" fill="#73bfc9"/>
        <ellipse id="Elipse_5255" data-name="Elipse 5255" cx="16.341" cy="9.597" rx="16.341" ry="9.597" transform="translate(6384.618 3918.047)" fill="#f4ae8c"/>
        <g id="Grupo_70319" data-name="Grupo 70319">
          <g id="Grupo_70318" data-name="Grupo 70318">
            <path id="Trazado_117019" data-name="Trazado 117019" d="M6454.781,3883.076s8.731-4.953,11.41,1.662c2.288,5.644-.3,20.3-15.641,18.676Z" fill="#ffc4a2"/>
            <path id="Trazado_117020" data-name="Trazado 117020" d="M6349,3878.993s-8.41-5.48-11.492.956c-2.631,5.493-.953,20.276,14.461,19.6Z" fill="#ffc4a2"/>
            <path id="Trazado_117021" data-name="Trazado 117021" d="M6457.243,3866.94s9.217,62.183-52.11,64.877-57.075-50.232-55.271-66.225c0,0-1.612-40.23,48.772-39.245C6456.006,3827.47,6457.243,3866.94,6457.243,3866.94Z" fill="#ffc4a2"/>
            <path id="Trazado_117022" data-name="Trazado 117022" d="M6354.9,3895.5a15.5,15.5,0,1,0,18.869-11.16A15.5,15.5,0,0,0,6354.9,3895.5Z" opacity="0.6" fill="url(#radial-gradient)"/>
            <path id="Trazado_117023" data-name="Trazado 117023" d="M6419.106,3897.366a15.5,15.5,0,1,0,18.872-11.16A15.5,15.5,0,0,0,6419.106,3897.366Z" opacity="0.6" fill="url(#radial-gradient-2)"/>
            <path id="Trazado_117024" data-name="Trazado 117024" d="M6406.552,3896.7c-1.095-2.005-3.41-3.743-5.8-3.225-.6.1-4.921,2.738-3.473,3.575.51.293,3.517-2.053,4.531-2.02a6.448,6.448,0,0,1,3.64,1.953C6405.767,3897.278,6407.078,3897.653,6406.552,3896.7Z" fill="#e29a7a"/>
            <path id="Trazado_117025" data-name="Trazado 117025" d="M6437.68,3864.961a9.123,9.123,0,0,0-4.351-5.587,10.692,10.692,0,0,0-6.278-1.648c-1.254.088-1.21.819-.237,1.306a37.929,37.929,0,0,1,5.435,3.077C6432.529,3862.314,6437.9,3866.586,6437.68,3864.961Z" fill="#a05c44"/>
            <path id="Trazado_117026" data-name="Trazado 117026" d="M6367.166,3864.548a9.115,9.115,0,0,1,4.739-5.262,10.686,10.686,0,0,1,6.38-1.2c1.245.177,1.148.9.143,1.319a37.811,37.811,0,0,0-5.642,2.681C6372.492,3862.275,6366.828,3866.153,6367.166,3864.548Z" fill="#a05c44"/>
            <g id="Grupo_70313" data-name="Grupo 70313">
              <path id="Trazado_117027" data-name="Trazado 117027" d="M6419.276,3884.71c-.282,5.468,5.339,8.077,10.824,8.359,7.41.383,8.847-3.645,9.037-7.334a9.944,9.944,0,0,0-19.861-1.025Z" fill="#fff"/>
              <path id="Trazado_117028" data-name="Trazado 117028" d="M6418.391,3883.861a8.593,8.593,0,1,0,9.025-8.138A8.6,8.6,0,0,0,6418.391,3883.861Z" fill="#a05b44"/>
              <path id="Trazado_117029" data-name="Trazado 117029" d="M6424.553,3876.048c5.239-.559,10.96.906,12.792,6.4a12.222,12.222,0,0,1,.121,7.226c-.079.242-2.4,4.031-1.079,3.459,1.624.478,3.37-3.9,3.581-4.8a12.174,12.174,0,0,0-1.755-9.249,11.014,11.014,0,0,0-9.262-4.588C6427.9,3874.481,6423.069,3874.472,6424.553,3876.048Z" fill="#3c2517"/>
              <path id="Trazado_117030" data-name="Trazado 117030" d="M6422.551,3880.243a2.313,2.313,0,1,0,2.429-2.19A2.313,2.313,0,0,0,6422.551,3880.243Z" fill="#fff"/>
            </g>
            <g id="Grupo_70314" data-name="Grupo 70314">
              <path id="Trazado_117031" data-name="Trazado 117031" d="M6384.742,3883.327c-.282,5.468-6.142,7.484-11.627,7.2-7.41-.383-8.424-4.537-8.234-8.227a9.944,9.944,0,0,1,19.861,1.025Z" fill="#fff"/>
              <path id="Trazado_117032" data-name="Trazado 117032" d="M6385.709,3882.573a8.593,8.593,0,1,1-8.138-9.023A8.592,8.592,0,0,1,6385.709,3882.573Z" fill="#a05c44"/>
              <path id="Trazado_117033" data-name="Trazado 117033" d="M6380.385,3874.168c-5.154-1.1-10.995-.227-13.383,5.054a12.2,12.2,0,0,0-.864,7.174c.053.25,1.97,4.256.716,3.552-1.664.309-2.95-4.226-3.066-5.145a12.173,12.173,0,0,1,2.7-9.02,11.02,11.02,0,0,1,9.686-3.61C6377.212,3872.264,6382.023,3872.752,6380.385,3874.168Z" fill="#3c2517"/>
              <path id="Trazado_117034" data-name="Trazado 117034" d="M6377.747,3877.932a2.313,2.313,0,1,0,2.429-2.19A2.313,2.313,0,0,0,6377.747,3877.932Z" fill="#fff"/>
            </g>
            <g id="Grupo_70315" data-name="Grupo 70315">
              <path id="Trazado_117035" data-name="Trazado 117035" d="M6347.035,3893.507a.819.819,0,0,0,.4-1.547c-1.884-.965-4.063-2.919-4.4-4.933a3.035,3.035,0,0,1,.957-2.725c1.164-1.2,2.816.085,2.886.14a.819.819,0,0,0,1.018-1.282c-.993-.788-3.333-1.8-5.08.005a4.688,4.688,0,0,0-1.4,4.13c.429,2.586,2.954,4.939,5.265,6.122A.825.825,0,0,0,6347.035,3893.507Z" fill="#e29a7a"/>
            </g>
            <g id="Grupo_70316" data-name="Grupo 70316">
              <path id="Trazado_117036" data-name="Trazado 117036" d="M6457.5,3897.406a.819.819,0,0,1-.3-1.568c1.939-.847,4.235-2.664,4.693-4.654a3.038,3.038,0,0,0-.789-2.778c-1.087-1.272-2.815-.088-2.889-.037a.818.818,0,1,1-.935-1.343c1.039-.726,3.437-1.593,5.069.318a4.69,4.69,0,0,1,1.139,4.208c-.589,2.555-3.253,4.747-5.634,5.787A.822.822,0,0,1,6457.5,3897.406Z" fill="#e29a7a"/>
            </g>
            <path id="Trazado_117037" data-name="Trazado 117037" d="M6460.265,3851.083s7.58,2.453,10.134-2.359a101.536,101.536,0,0,1-10.064-10s6.051,2.7,8.2.989c0,0-7.629-6.208-10.616-9.367,0,0-12.713-22.255-32.99-17.386,0,0-22.092-21.742-54.154-4.035-5.32,2.937-9.6,6.554-23.968,4.058,0,0,8.2,7.219,11.64,5.514-4.7,3.686-13.445,11.828-15.307,22.539,0,0,5.851-8.039,9.688-8.8,0,0-17.6,17.7-5.84,34.491,0,0-.443-2.353,3.459-7.716,0,0,1.415,4.738,8.873,4.552,0,0-1.217-13.1,7.611-21.063,0,0,1.082,11.777,13.407,12.161a16.131,16.131,0,0,1,2.8-15.406,11.58,11.58,0,0,1,3.224,12.328s2.6-1.372,4.788-5.5c1.22,3.8,3.79,7.921,8.567,12.055,0,0-1.922-10.775,2.962-19.938-1.243,2.675-3.03,10.142,10.488,17.524,0,0-.52-15.008,4.067-18.231,0,0,8.7,9.615,6.45,17.489,0,0,11.05-.489,12.088-13.186,0,0,12.208,11.181,8.956,21.283a8.12,8.12,0,0,0,5.492-7.159s5.608,7.546,6.047,11.237C6456.273,3867.154,6464.272,3864.17,6460.265,3851.083Zm-96.86-34.007Z" fill="#a05b44"/>
            <path id="Trazado_117038" data-name="Trazado 117038" d="M6378.772,3812.6s-15.6,3.483-20.885,14.489c0,0,9.072-7.421,12.075-7.947,0,0-17.482,15.184-15.148,28.015,0,0,6.823-13.958,13.47-18.509,0,0-5.139,9.026-3.739,15.285,0,0,6.716-12.5,10.88-14.95a12.4,12.4,0,0,0,.422,9.568s3.526-13.6,9.279-19.421c0,0-8.31,2.051-11.357,7.219,0,0,3.929-8.337,4.565-9.542s-2.523.517-4.541,2.636A37.534,37.534,0,0,1,6378.772,3812.6Z" fill="#b5715e"/>
            <g id="Grupo_70317" data-name="Grupo 70317">
              <path id="Trazado_117039" data-name="Trazado 117039" d="M6384.621,3913.217c0,.077,0,.153.01.229,0,.05,0,.1,0,.152.123,4.456,5.635,14.258,17.442,13.934,9.4-.259,15.81-10.136,15.687-14.592,0-.087-.008-.17-.016-.251,0-.127,0-.255,0-.383a8.061,8.061,0,0,0-8.5-7.588,8.616,8.616,0,0,0-4.253,1.244s-4.586,2.014-7.993.22h0a8.607,8.607,0,0,0-4.315-1.008A8.06,8.06,0,0,0,6384.621,3913.217Zm26.258-3.24a1.55,1.55,0,1,1-1.507,1.592A1.551,1.551,0,0,1,6410.879,3909.977Zm-19.533.538a1.55,1.55,0,1,1-1.506,1.592A1.55,1.55,0,0,1,6391.346,3910.515Z" fill="#95cbf1"/>
              <path id="Trazado_117040" data-name="Trazado 117040" d="M6389.448,3921.035a6.1,6.1,0,0,1,.295-1.049,6.276,6.276,0,0,1,.459-.963,7.054,7.054,0,0,1,.588-.864,8.8,8.8,0,0,1,1.44-1.422,10.839,10.839,0,0,1,1.648-1.069c.286-.154.577-.294.871-.424s.591-.25.891-.361a16.292,16.292,0,0,1,1.825-.551,18.265,18.265,0,0,1,1.863-.349c.624-.085,1.253-.137,1.882-.162a17.47,17.47,0,0,1,3.776.262q.469.085.934.2c.31.077.617.162.923.258a13.52,13.52,0,0,1,1.8.7,11.18,11.18,0,0,1,1.695,1,8.954,8.954,0,0,1,1.5,1.351,7.035,7.035,0,0,1,1.145,1.762,6.143,6.143,0,0,1,.526,2.115,6.215,6.215,0,0,1-.26,2.191,6.851,6.851,0,0,1-.4,1.021,7.509,7.509,0,0,1-.541.935,9.146,9.146,0,0,1-1.384,1.591,11.211,11.211,0,0,1-1.639,1.245,13.344,13.344,0,0,1-1.795.94c-.308.134-.62.255-.936.367s-.634.212-.955.3a16.814,16.814,0,0,1-3.927.609,15.767,15.767,0,0,1-3.964-.349,13.666,13.666,0,0,1-3.77-1.428,11.591,11.591,0,0,1-1.695-1.172,9.389,9.389,0,0,1-1.457-1.522,7.393,7.393,0,0,1-1.046-1.9,6.3,6.3,0,0,1-.394-2.168A6.236,6.236,0,0,1,6389.448,3921.035Zm2.151,1.742c.014.058.032.115.048.172s.036.114.058.17.04.112.064.167c.012.028.023.056.035.083l.037.082a4.227,4.227,0,0,0,.36.633,5.148,5.148,0,0,0,.461.584,6.752,6.752,0,0,0,1.164,1,8.883,8.883,0,0,0,1.382.771c.242.111.491.212.743.306s.509.178.768.257a14.336,14.336,0,0,0,1.588.378,16.964,16.964,0,0,0,3.284.262,15.447,15.447,0,0,0,3.275-.4q.4-.094.793-.212c.261-.079.52-.165.775-.259a11.584,11.584,0,0,0,1.474-.663,9,9,0,0,0,1.327-.865,6.97,6.97,0,0,0,1.094-1.07,5.016,5.016,0,0,0,.752-1.255,3.926,3.926,0,0,0,.248-2.11,4.206,4.206,0,0,0-.178-.713,4.6,4.6,0,0,0-.3-.693,5.376,5.376,0,0,0-.418-.658,6.956,6.956,0,0,0-1.117-1.171,9.091,9.091,0,0,0-1.382-.947,11.139,11.139,0,0,0-1.554-.716q-.4-.151-.819-.274c-.277-.083-.557-.155-.84-.219a14.734,14.734,0,0,0-3.471-.35,13.664,13.664,0,0,0-3.458.5,11.453,11.453,0,0,0-3.141,1.407,9.235,9.235,0,0,0-1.317,1.04,7.093,7.093,0,0,0-1.039,1.24,5.175,5.175,0,0,0-.646,1.384,4.179,4.179,0,0,0-.16,1.437A4.054,4.054,0,0,0,6391.6,3922.777Z" fill="#fae380"/>
              <ellipse id="Elipse_5256" data-name="Elipse 5256" cx="8.22" cy="6.001" rx="8.22" ry="6.001" transform="matrix(1, -0.028, 0.028, 1, 6392.896, 3910.472)" fill="#c8f3fa"/>
            </g>
          </g>
        </g>
        <path id="Trazado_117041" data-name="Trazado 117041" d="M6367.868,3979.41s-30.19,21.44-19.252,41.129c0,0,21,25.378,25.378,28.879,0,0,16.627,3.5,22.315-12.252l-16.9-24.532,8.618-8.489Z" fill="#73bfc9"/>
        <path id="Trazado_117042" data-name="Trazado 117042" d="M6373.994,4049.418s-7.672,15.215-3.634,18.716,10.6,4.375,19.79-4.376,23.112-15.784,6.159-26.592Z" fill="#73bfc9"/>
        <path id="Trazado_117043" data-name="Trazado 117043" d="M6443.1,3981.275s26.614,22.657,16.221,42.64c0,0-20.3,25.946-24.574,29.565,0,0-16.524,3.956-22.644-11.633l16.978-29.236-10.9-5.484Z" fill="#73bfc9"/>
        <path id="Trazado_117044" data-name="Trazado 117044" d="M6434.748,4053.48s8.087,15,4.147,18.609-10.477,4.665-19.9-3.83-23.538-15.142-6.889-26.412Z" fill="#73bfc9"/>
        <circle id="Elipse_5257" data-name="Elipse 5257" cx="3.103" cy="3.103" r="3.103" transform="translate(6398.086 3980.172)" fill="#fff"/>
        <circle id="Elipse_5258" data-name="Elipse 5258" cx="3.103" cy="3.103" r="3.103" transform="translate(6398.086 3999.081)" fill="#fff"/>
        <circle id="Elipse_5259" data-name="Elipse 5259" cx="3.103" cy="3.103" r="3.103" transform="translate(6398.086 3961.264)" fill="#fff"/>
        <circle id="Elipse_5260" data-name="Elipse 5260" cx="3.103" cy="3.103" r="3.103" transform="translate(6398.086 3942.355)" fill="#fff"/>
        <g id="Grupo_70320" data-name="Grupo 70320">
          <path id="Trazado_117045" data-name="Trazado 117045" d="M6429.556,4012.187a.384.384,0,0,1-.291-.634,36.729,36.729,0,0,1,7.516-6.6.384.384,0,0,1,.39.661,36.674,36.674,0,0,0-7.324,6.435A.386.386,0,0,1,6429.556,4012.187Z" fill="#54abb2"/>
        </g>
        <g id="Grupo_70321" data-name="Grupo 70321">
          <path id="Trazado_117046" data-name="Trazado 117046" d="M6379.4,4013.018a.383.383,0,0,1-.369-.28c-.3-1.053-2.912-4.5-5.715-6.446a.384.384,0,0,1,.438-.63c2.8,1.948,5.645,5.55,6.016,6.868a.384.384,0,0,1-.266.473A.376.376,0,0,1,6379.4,4013.018Z" fill="#54abb2"/>
        </g>
      </g>
      <g id="Grupo_70327" data-name="Grupo 70327">
        <g id="Grupo_70323" data-name="Grupo 70323">
          <path id="Trazado_117047" data-name="Trazado 117047" d="M6314.033,3885.867l-15.821-3.735a5.606,5.606,0,0,1,.758-3.212c.957-1.658,5.356-1.938,5.356-1.938s1.139-.78.123-2.514a2.8,2.8,0,0,1,.347-3c1.377-1.861,4.123-1.391,4.561-1.3v0l.03.008.03.006v0c.408.11,2.828.841,3.417,2.862a3.012,3.012,0,0,1,.08.342,2.8,2.8,0,0,1-1.031,2.839c-1.685,1.1-1.015,2.3-1.015,2.3s3.809,2.218,3.923,4.128A5.6,5.6,0,0,1,6314.033,3885.867Z" fill="#f2b92c"/>
          <path id="Trazado_117048" data-name="Trazado 117048" d="M6314.033,3885.867l-3.019-.713s.553-1.941.685-2.9-3.726-2.89-4.019-4.34c-.143-.706.6-1.129-1.54-2.435s-1.329-2.15-1.329-2.15.894,1.2,4.316,1.866a2.98,2.98,0,0,0,3.707-2.154,3.012,3.012,0,0,1,.08.342,2.8,2.8,0,0,1-1.031,2.839c-1.685,1.1-1.015,2.3-1.015,2.3s3.809,2.218,3.923,4.128A5.6,5.6,0,0,1,6314.033,3885.867Z" fill="#d89d19"/>
        </g>
        <path id="Trazado_117049" data-name="Trazado 117049" d="M6309.116,3935.713c-.807,3.421-7.909,4.673-15.862,2.8s-13.744-6.173-12.936-9.595l8.592-36.4a5.024,5.024,0,0,1,6.044-3.735l19.019,4.489a5.025,5.025,0,0,1,3.735,6.045Z" fill="#bdedf9"/>
        <path id="Trazado_117050" data-name="Trazado 117050" d="M6293.064,3934.681a.125.125,0,0,1-.074.239l-.017,0c-6.292-1.485-10.831-5.072-10.137-8.013l7.383-31.274a4.157,4.157,0,0,1,4.861-3.289l3.547.837a4.115,4.115,0,0,0-4.763,3.312l-7.383,31.275C6285.917,3930.148,6288.714,3932.94,6293.064,3934.681Z" fill="#fff"/>
        <rect id="Rectángulo_7283" data-name="Rectángulo 7283" width="8.158" height="24.291" rx="3.573" transform="matrix(0.23, -0.973, 0.973, 0.23, 6292.554, 3888.614)" fill="#57afb5"/>
        <g id="Grupo_70324" data-name="Grupo 70324">
          <path id="Trazado_117051" data-name="Trazado 117051" d="M6294.512,3887.569h0a.4.4,0,0,1-.3-.478l1.123-4.758a.4.4,0,0,1,.478-.295h0a.4.4,0,0,1,.295.478l-1.123,4.758A.4.4,0,0,1,6294.512,3887.569Z" fill="#4aa3a5"/>
          <path id="Trazado_117052" data-name="Trazado 117052" d="M6295.969,3887.913h0a.4.4,0,0,1-.3-.478l1.123-4.758a.4.4,0,0,1,.478-.295h0a.4.4,0,0,1,.295.478l-1.123,4.758A.4.4,0,0,1,6295.969,3887.913Z" fill="#4aa3a5"/>
          <path id="Trazado_117053" data-name="Trazado 117053" d="M6297.426,3888.257h0a.4.4,0,0,1-.295-.478l1.123-4.758a.4.4,0,0,1,.478-.295h0a.4.4,0,0,1,.295.478l-1.123,4.758A.4.4,0,0,1,6297.426,3888.257Z" fill="#4aa3a5"/>
          <path id="Trazado_117054" data-name="Trazado 117054" d="M6298.883,3888.6h0a.4.4,0,0,1-.295-.478l1.123-4.758a.4.4,0,0,1,.478-.295h0a.4.4,0,0,1,.295.478l-1.123,4.758A.4.4,0,0,1,6298.883,3888.6Z" fill="#4aa3a5"/>
          <path id="Trazado_117055" data-name="Trazado 117055" d="M6300.34,3888.945h0a.4.4,0,0,1-.295-.478l1.123-4.758a.4.4,0,0,1,.478-.295h0a.4.4,0,0,1,.295.477l-1.123,4.759A.4.4,0,0,1,6300.34,3888.945Z" fill="#4aa3a5"/>
          <path id="Trazado_117056" data-name="Trazado 117056" d="M6301.8,3889.289h0a.4.4,0,0,1-.295-.478l1.123-4.758a.4.4,0,0,1,.478-.295h0a.4.4,0,0,1,.295.477l-1.123,4.758A.4.4,0,0,1,6301.8,3889.289Z" fill="#4aa3a5"/>
          <path id="Trazado_117057" data-name="Trazado 117057" d="M6303.254,3889.633h0a.4.4,0,0,1-.295-.478l1.123-4.758a.4.4,0,0,1,.478-.295h0a.4.4,0,0,1,.3.477l-1.124,4.758A.4.4,0,0,1,6303.254,3889.633Z" fill="#4aa3a5"/>
          <path id="Trazado_117058" data-name="Trazado 117058" d="M6304.712,3889.977h0a.4.4,0,0,1-.3-.478l1.123-4.758a.4.4,0,0,1,.478-.295h0a.4.4,0,0,1,.3.477l-1.124,4.758A.4.4,0,0,1,6304.712,3889.977Z" fill="#4aa3a5"/>
          <path id="Trazado_117059" data-name="Trazado 117059" d="M6306.169,3890.321h0a.4.4,0,0,1-.3-.478l1.123-4.758a.4.4,0,0,1,.478-.3h0a.4.4,0,0,1,.3.478l-1.124,4.758A.4.4,0,0,1,6306.169,3890.321Z" fill="#4aa3a5"/>
          <path id="Trazado_117060" data-name="Trazado 117060" d="M6307.626,3890.665h0a.4.4,0,0,1-.3-.478l1.123-4.758a.4.4,0,0,1,.478-.3h0a.4.4,0,0,1,.3.478l-1.124,4.758A.4.4,0,0,1,6307.626,3890.665Z" fill="#4aa3a5"/>
          <path id="Trazado_117061" data-name="Trazado 117061" d="M6309.083,3891.009h0a.4.4,0,0,1-.3-.478l1.124-4.758a.4.4,0,0,1,.477-.3h0a.4.4,0,0,1,.3.478l-1.123,4.758A.4.4,0,0,1,6309.083,3891.009Z" fill="#4aa3a5"/>
          <path id="Trazado_117062" data-name="Trazado 117062" d="M6310.54,3891.353h0a.4.4,0,0,1-.3-.478l1.124-4.758a.4.4,0,0,1,.477-.3h0a.4.4,0,0,1,.3.478l-1.123,4.758A.4.4,0,0,1,6310.54,3891.353Z" fill="#4aa3a5"/>
          <path id="Trazado_117063" data-name="Trazado 117063" d="M6312,3891.7h0a.4.4,0,0,1-.3-.478l1.124-4.758a.4.4,0,0,1,.477-.3h0a.4.4,0,0,1,.3.478l-1.123,4.758A.4.4,0,0,1,6312,3891.7Z" fill="#4aa3a5"/>
          <path id="Trazado_117064" data-name="Trazado 117064" d="M6313.454,3892.041h0a.4.4,0,0,1-.3-.478l1.124-4.758a.4.4,0,0,1,.478-.3h0a.4.4,0,0,1,.3.478l-1.123,4.758A.4.4,0,0,1,6313.454,3892.041Z" fill="#4aa3a5"/>
          <path id="Trazado_117065" data-name="Trazado 117065" d="M6314.911,3892.384h0a.4.4,0,0,1-.295-.477l1.123-4.758a.4.4,0,0,1,.478-.3h0a.4.4,0,0,1,.3.478l-1.123,4.758A.4.4,0,0,1,6314.911,3892.384Z" fill="#4aa3a5"/>
        </g>
        <g id="Grupo_70325" data-name="Grupo 70325">
          <path id="Trazado_117066" data-name="Trazado 117066" d="M6294.194,3887.4h0a.4.4,0,0,1-.3-.478l1.054-4.464a.4.4,0,0,1,.478-.3h0a.4.4,0,0,1,.295.478l-1.053,4.464A.4.4,0,0,1,6294.194,3887.4Z" fill="#57afb5"/>
          <path id="Trazado_117067" data-name="Trazado 117067" d="M6295.651,3887.74h0a.4.4,0,0,1-.3-.478l1.054-4.464a.4.4,0,0,1,.478-.3h0a.4.4,0,0,1,.295.478l-1.053,4.464A.4.4,0,0,1,6295.651,3887.74Z" fill="#57afb5"/>
          <path id="Trazado_117068" data-name="Trazado 117068" d="M6297.108,3888.084h0a.4.4,0,0,1-.3-.478l1.054-4.464a.4.4,0,0,1,.478-.3h0a.4.4,0,0,1,.295.478l-1.053,4.464A.4.4,0,0,1,6297.108,3888.084Z" fill="#57afb5"/>
          <path id="Trazado_117069" data-name="Trazado 117069" d="M6298.565,3888.428h0a.4.4,0,0,1-.3-.478l1.054-4.464a.4.4,0,0,1,.478-.3h0a.4.4,0,0,1,.3.478l-1.053,4.464A.4.4,0,0,1,6298.565,3888.428Z" fill="#57afb5"/>
          <path id="Trazado_117070" data-name="Trazado 117070" d="M6300.022,3888.772h0a.4.4,0,0,1-.295-.478l1.053-4.464a.4.4,0,0,1,.478-.3h0a.4.4,0,0,1,.3.478l-1.054,4.464A.4.4,0,0,1,6300.022,3888.772Z" fill="#57afb5"/>
          <path id="Trazado_117071" data-name="Trazado 117071" d="M6301.479,3889.116h0a.4.4,0,0,1-.295-.478l1.053-4.464a.4.4,0,0,1,.478-.3h0a.4.4,0,0,1,.3.478l-1.054,4.464A.4.4,0,0,1,6301.479,3889.116Z" fill="#57afb5"/>
          <path id="Trazado_117072" data-name="Trazado 117072" d="M6302.936,3889.46h0a.4.4,0,0,1-.295-.478l1.053-4.464a.4.4,0,0,1,.478-.3h0a.4.4,0,0,1,.3.478l-1.054,4.464A.4.4,0,0,1,6302.936,3889.46Z" fill="#57afb5"/>
          <path id="Trazado_117073" data-name="Trazado 117073" d="M6304.393,3889.8h0a.4.4,0,0,1-.295-.478l1.053-4.464a.4.4,0,0,1,.478-.3h0a.4.4,0,0,1,.3.478l-1.054,4.464A.4.4,0,0,1,6304.393,3889.8Z" fill="#57afb5"/>
          <path id="Trazado_117074" data-name="Trazado 117074" d="M6305.85,3890.148h0a.4.4,0,0,1-.295-.478l1.054-4.464a.4.4,0,0,1,.477-.3h0a.4.4,0,0,1,.3.478l-1.054,4.464A.4.4,0,0,1,6305.85,3890.148Z" fill="#57afb5"/>
          <path id="Trazado_117075" data-name="Trazado 117075" d="M6307.307,3890.492h0a.4.4,0,0,1-.295-.478l1.054-4.464a.4.4,0,0,1,.477-.3h0a.4.4,0,0,1,.3.478l-1.054,4.463A.4.4,0,0,1,6307.307,3890.492Z" fill="#57afb5"/>
          <path id="Trazado_117076" data-name="Trazado 117076" d="M6308.764,3890.836h0a.4.4,0,0,1-.295-.478l1.054-4.464a.4.4,0,0,1,.477-.295h0a.4.4,0,0,1,.3.477l-1.054,4.464A.4.4,0,0,1,6308.764,3890.836Z" fill="#57afb5"/>
          <path id="Trazado_117077" data-name="Trazado 117077" d="M6310.221,3891.18h0a.4.4,0,0,1-.3-.478l1.054-4.464a.4.4,0,0,1,.478-.295h0a.4.4,0,0,1,.295.477l-1.054,4.464A.4.4,0,0,1,6310.221,3891.18Z" fill="#57afb5"/>
          <path id="Trazado_117078" data-name="Trazado 117078" d="M6311.678,3891.524h0a.4.4,0,0,1-.3-.478l1.054-4.464a.4.4,0,0,1,.478-.295h0a.4.4,0,0,1,.295.477l-1.054,4.464A.4.4,0,0,1,6311.678,3891.524Z" fill="#57afb5"/>
          <path id="Trazado_117079" data-name="Trazado 117079" d="M6313.135,3891.868h0a.4.4,0,0,1-.295-.478l1.054-4.464a.4.4,0,0,1,.478-.295h0a.4.4,0,0,1,.295.477l-1.054,4.464A.4.4,0,0,1,6313.135,3891.868Z" fill="#57afb5"/>
          <path id="Trazado_117080" data-name="Trazado 117080" d="M6314.592,3892.212h0a.4.4,0,0,1-.295-.478l1.054-4.464a.4.4,0,0,1,.478-.3h0a.4.4,0,0,1,.295.478l-1.054,4.464A.4.4,0,0,1,6314.592,3892.212Z" fill="#57afb5"/>
        </g>
        <g id="Grupo_70326" data-name="Grupo 70326">
          <rect id="Rectángulo_7284" data-name="Rectángulo 7284" width="0.55" height="3.366" transform="translate(6313.091 3904.152) rotate(-76.717)" fill="#03a5d6"/>
          <rect id="Rectángulo_7285" data-name="Rectángulo 7285" width="0.55" height="3.366" transform="translate(6309.258 3920.388) rotate(-76.718)" fill="#03a5d6"/>
          <rect id="Rectángulo_7286" data-name="Rectángulo 7286" width="0.55" height="3.366" transform="translate(6308.331 3924.314) rotate(-76.718)" fill="#03a5d6"/>
          <rect id="Rectángulo_7287" data-name="Rectángulo 7287" width="0.55" height="3.366" transform="translate(6307.341 3928.507) rotate(-76.717)" fill="#03a5d6"/>
          <rect id="Rectángulo_7288" data-name="Rectángulo 7288" width="0.55" height="3.366" transform="translate(6306.878 3930.47) rotate(-76.717)" fill="#03a5d6"/>
          <rect id="Rectángulo_7289" data-name="Rectángulo 7289" width="0.55" height="3.366" transform="translate(6306.415 3932.432) rotate(-76.717)" fill="#03a5d6"/>
          <rect id="Rectángulo_7290" data-name="Rectángulo 7290" width="0.55" height="3.366" transform="translate(6312.164 3908.077) rotate(-76.717)" fill="#03a5d6"/>
          <rect id="Rectángulo_7291" data-name="Rectángulo 7291" width="0.55" height="3.366" transform="translate(6312.627 3906.115) rotate(-76.718)" fill="#03a5d6"/>
          <rect id="Rectángulo_7292" data-name="Rectángulo 7292" width="0.55" height="3.366" transform="translate(6311.174 3912.27) rotate(-76.718)" fill="#03a5d6"/>
          <rect id="Rectángulo_7293" data-name="Rectángulo 7293" width="0.55" height="3.366" transform="translate(6310.711 3914.233) rotate(-76.718)" fill="#03a5d6"/>
          <rect id="Rectángulo_7294" data-name="Rectángulo 7294" width="0.55" height="3.366" transform="translate(6310.248 3916.196) rotate(-76.717)" fill="#03a5d6"/>
          <rect id="Rectángulo_7295" data-name="Rectángulo 7295" width="0.55" height="3.366" transform="translate(6308.794 3922.351) rotate(-76.717)" fill="#03a5d6"/>
          <rect id="Rectángulo_7296" data-name="Rectángulo 7296" width="0.55" height="5.463" transform="translate(6309.629 3909.692) rotate(-76.718)" fill="#03a5d6"/>
          <rect id="Rectángulo_7297" data-name="Rectángulo 7297" width="0.55" height="5.463" transform="translate(6311.526 3901.656) rotate(-76.718)" fill="#03a5d6"/>
          <rect id="Rectángulo_7298" data-name="Rectángulo 7298" width="0.55" height="5.463" transform="translate(6307.712 3917.81) rotate(-76.718)" fill="#03a5d6"/>
          <rect id="Rectángulo_7299" data-name="Rectángulo 7299" width="0.55" height="5.463" transform="translate(6303.879 3934.047) rotate(-76.717)" fill="#03a5d6"/>
          <rect id="Rectángulo_7300" data-name="Rectángulo 7300" width="0.55" height="5.463" transform="translate(6305.796 3925.929) rotate(-76.718)" fill="#03a5d6"/>
        </g>
      </g>
      <g id="Grupo_70333" data-name="Grupo 70333">
        <rect id="Rectángulo_7301" data-name="Rectángulo 7301" width="4.51" height="26.316" transform="matrix(0.961, 0.278, -0.278, 0.961, 6496.387, 3892.72)" fill="#03a5d6"/>
        <g id="Grupo_70328" data-name="Grupo 70328">
          <path id="Trazado_117081" data-name="Trazado 117081" d="M6488.434,3928.319a5.821,5.821,0,1,1,7.209-3.974A5.828,5.828,0,0,1,6488.434,3928.319Zm2.373-8.2a2.718,2.718,0,1,0,1.856,3.367A2.721,2.721,0,0,0,6490.807,3920.116Z" fill="#03a5d6"/>
        </g>
        <circle id="Elipse_5261" data-name="Elipse 5261" cx="13.466" cy="13.466" r="13.466" transform="translate(6488.41 3868.4)" fill="#c1e5f1"/>
        <path id="Trazado_117082" data-name="Trazado 117082" d="M6516.564,3886.985a1.751,1.751,0,0,1-1.919,1.215l-.826-.111a91.881,91.881,0,0,1-25.365-7.34q-.379-.171-.757-.347a1.736,1.736,0,0,1-.87-2.32,1.761,1.761,0,0,1,2.066-.9,1.834,1.834,0,0,1,.254.095l.057.026a88.434,88.434,0,0,0,25.819,7.472l.062.008a1.763,1.763,0,0,1,1.534,1.916A1.673,1.673,0,0,1,6516.564,3886.985Z" fill="#03a5d6"/>
        <g id="Grupo_70331" data-name="Grupo 70331">
          <path id="Trazado_117083" data-name="Trazado 117083" d="M6513.819,3888.089a13.468,13.468,0,0,1-25.365-7.34A91.881,91.881,0,0,0,6513.819,3888.089Z" fill="#9dcbe5"/>
          <g id="Grupo_70330" data-name="Grupo 70330" clip-path="url(#clip-path)">
            <g id="Grupo_70329" data-name="Grupo 70329">
              <circle id="Elipse_5262" data-name="Elipse 5262" cx="1.297" cy="1.297" r="1.297" transform="translate(6488.946 3881.442)" fill="#fff"/>
              <circle id="Elipse_5263" data-name="Elipse 5263" cx="1.297" cy="1.297" r="1.297" transform="translate(6495.078 3883.217)" fill="#fff"/>
              <circle id="Elipse_5264" data-name="Elipse 5264" cx="1.297" cy="1.297" r="1.297" transform="translate(6501.21 3884.991)" fill="#fff"/>
              <circle id="Elipse_5265" data-name="Elipse 5265" cx="1.297" cy="1.297" r="1.297" transform="translate(6507.343 3886.765)" fill="#fff"/>
              <circle id="Elipse_5266" data-name="Elipse 5266" cx="1.297" cy="1.297" r="1.297" transform="translate(6513.475 3888.54)" fill="#fff"/>
              <circle id="Elipse_5267" data-name="Elipse 5267" cx="1.297" cy="1.297" r="1.297" transform="translate(6487.207 3889.246)" fill="#fff"/>
              <circle id="Elipse_5268" data-name="Elipse 5268" cx="1.297" cy="1.297" r="1.297" transform="translate(6493.339 3891.02)" fill="#fff"/>
              <circle id="Elipse_5269" data-name="Elipse 5269" cx="1.297" cy="1.297" r="1.297" transform="translate(6499.472 3892.795)" fill="#fff"/>
              <circle id="Elipse_5270" data-name="Elipse 5270" cx="1.297" cy="1.297" r="1.297" transform="translate(6505.604 3894.569)" fill="#fff"/>
              <circle id="Elipse_5271" data-name="Elipse 5271" cx="1.297" cy="1.297" r="1.297" transform="translate(6511.736 3896.344)" fill="#fff"/>
              <circle id="Elipse_5272" data-name="Elipse 5272" cx="1.297" cy="1.297" r="1.297" transform="translate(6485 3884.383)" fill="#fff"/>
              <circle id="Elipse_5273" data-name="Elipse 5273" cx="1.297" cy="1.297" r="1.297" transform="translate(6491.132 3886.157)" fill="#fff"/>
              <circle id="Elipse_5274" data-name="Elipse 5274" cx="1.297" cy="1.297" r="1.297" transform="translate(6497.264 3887.932)" fill="#fff"/>
              <circle id="Elipse_5275" data-name="Elipse 5275" cx="1.297" cy="1.297" r="1.297" transform="translate(6503.396 3889.706)" fill="#fff"/>
              <circle id="Elipse_5276" data-name="Elipse 5276" cx="1.297" cy="1.297" r="1.297" transform="translate(6509.529 3891.481)" fill="#fff"/>
            </g>
          </g>
        </g>
        <circle id="Elipse_5277" data-name="Elipse 5277" cx="2.02" cy="2.02" r="2.02" transform="translate(6503.786 3866.264)" fill="#03a5d6"/>
        <g id="Grupo_70332" data-name="Grupo 70332">
          <path id="Trazado_117085" data-name="Trazado 117085" d="M6490.877,3885.721l-5.632,3.1s-1.336,2.858,9.738,7.393l2.371-1.9S6490.589,3886.665,6490.877,3885.721Z" fill="#0cc0ea"/>
          <path id="Trazado_117086" data-name="Trazado 117086" d="M6500.5,3896.333s1.678,3.319,4.915,3.358a6.958,6.958,0,0,1,3.874,1.747c1.5,1.53,2,1.135,2,1.135l-2.406,5.523a4.748,4.748,0,0,0-2.839-2.958c-1.143-.471-7.493-.582-6.475-8.4Z" fill="#0cc0ea"/>
          <path id="Trazado_117087" data-name="Trazado 117087" d="M6495.282,3895.091s-3.217,1.865-5.951.131a6.959,6.959,0,0,0-4.2-.651c-2.09.465-2.291-.137-2.291-.137l-1,5.94a4.752,4.752,0,0,1,3.994-.929c1.215.229,6.6,3.6,10.008-3.5Z" fill="#0cc0ea"/>
          <path id="Trazado_117088" data-name="Trazado 117088" d="M6497.279,3894.295s-9.18-8.053-5.835-9.089C6491.444,3885.206,6494.05,3884.226,6497.279,3894.295Z" fill="#03a5d6"/>
          <path id="Trazado_117089" data-name="Trazado 117089" d="M6508.917,3891.486l3.026,5.672s-.439,3.124-12.194.881l-.951-2.884S6508.643,3892.435,6508.917,3891.486Z" fill="#0cc0ea"/>
          <path id="Trazado_117090" data-name="Trazado 117090" d="M6498.8,3895.155s12.087-1.738,9.849-4.431C6508.647,3890.724,6507,3888.48,6498.8,3895.155Z" fill="#03a5d6"/>
          <path id="Trazado_117091" data-name="Trazado 117091" d="M6500.476,3897.045a2.119,2.119,0,0,1-2.634,1.429l-1.421-.422a2.119,2.119,0,0,1,.428-4.143,2.088,2.088,0,0,1,.779.081l1.42.422a2.1,2.1,0,0,1,1.084.749h0A2.113,2.113,0,0,1,6500.476,3897.045Z" fill="#0cc0ea"/>
          <path id="Trazado_117092" data-name="Trazado 117092" d="M6500.476,3897.045a2.119,2.119,0,0,1-2.634,1.429l-1.421-.422a2.119,2.119,0,0,1,.428-4.143c-.036.04-1.68,1.249-1.237,2.492.451,1.263.711-.269,1.234-.647s.426.608.43,1.142.586.953.94.217.935-.959,1.038-.21c.136.99-.012,1.619.646.653a2.343,2.343,0,0,0,.233-2.394A2.113,2.113,0,0,1,6500.476,3897.045Z" fill="#231f20" opacity="0.2" style="mix-blend-mode: multiply;isolation: isolate"/>
        </g>
        <path id="Trazado_117093" data-name="Trazado 117093" d="M6490.93,3875.791a13.786,13.786,0,0,1,11.694-6.74A30.948,30.948,0,0,0,6490.93,3875.791Z" fill="#fff"/>
        <path id="Trazado_117094" data-name="Trazado 117094" d="M6490.227,3916.162h0a.226.226,0,0,1-.154-.28l4.716-16.3a.227.227,0,0,1,.28-.155h0a.227.227,0,0,1,.154.28l-4.716,16.3A.225.225,0,0,1,6490.227,3916.162Z" fill="#fff"/>
      </g>
    </g>
    <g id="Grupo_70266" data-name="Grupo 70266" transform="translate(636.077 430.355)">
      <g id="Grupo_70255" data-name="Grupo 70255" transform="translate(562.145 -241.162)">
        <g id="Grupo_70250" data-name="Grupo 70250" transform="translate(0 0)">
          <path id="Trazado_116894" data-name="Trazado 116894" d="M131.387,42.177c1.377,4.871,2.425,11.65,11.052,10.711s10.708-11.521,10.708-11.521,3.065,19.122-11.1,21.139S131.387,42.177,131.387,42.177Z" transform="translate(-117.877 -41.058)" fill="#d84f14"/>
          <path id="Trazado_116895" data-name="Trazado 116895" d="M142.677,52.888c-8.627.938-9.675-5.84-11.052-10.711,0,0-.221,1.406-.327,3.48,1,5.535,3.81,11.089,11.223,10.032,6.829-.972,9.84-5.971,11.133-10.887a28.7,28.7,0,0,0-.269-3.435S151.3,51.95,142.677,52.888Z" transform="translate(-118.115 -41.058)" fill="#b74112"/>
          <path id="Trazado_116896" data-name="Trazado 116896" d="M99.032,41.164c2.827.64,6.346,1.061,9.881,2.023-1.163,6.237.344,17.884,3.5,20.379,3.938,22.825,10.05,30.271,16.722,40.546-7.219,16.208-52.579,22.168-64.8,15.923-3.737-35.7.177-72.5.208-73.662,6.184-2.505,8.237-3.435,10.889-4.286C72.73,73.868,104.437,62.9,99.032,41.164Z" transform="translate(-62.719 -40.894)" fill="#f15e1b"/>
          <path id="Trazado_116897" data-name="Trazado 116897" d="M120.445,96.137c.567,1.13,1.147,2.208,1.738,3.248-13.46,11.1-46.688,15.137-58.986,10.838q-.08-1.674-.143-3.331C75.761,110.793,107.258,106.868,120.445,96.137Zm-6.472-18.769c-13.35,7.688-37.832,9.987-51.1,7.291q-.032,1.682-.052,3.42C75.836,90.99,101,88.769,114.889,81.1Q114.419,79.319,113.973,77.369ZM62.808,96.39q.016,1.666.046,3.361c12.52,3.314,40.893-.157,54.993-9.463-.44-1.129-.869-2.315-1.288-3.567C102.994,95.9,75.7,99.382,62.808,96.39Zm.8,20.856q.119,1.68.257,3.364c13.515,4.773,52.616-.626,62.519-14.464-.644-.979-1.28-1.956-1.909-2.946C114.282,116.483,77.437,121.62,63.612,117.246Zm.6-59.725a94.567,94.567,0,0,0,11.715.681,26.542,26.542,0,0,1-.5-3.6A94.67,94.67,0,0,1,64.5,54.019C64.433,54.842,64.33,56.024,64.21,57.521Zm46.561,9.823C97.729,73.953,76.177,76.07,63.2,74q-.071,1.671-.135,3.437c13.127,2.333,36.1.134,49.543-6.856-.04-.229-.08-.458-.121-.69A6.563,6.563,0,0,1,110.771,67.343ZM96.42,62.594a14.758,14.758,0,0,1-5.646,4.6A70.307,70.307,0,0,0,109.4,62.674c-.245-1.22-.435-2.509-.569-3.813A58.138,58.138,0,0,1,96.42,62.594ZM78.508,64.331a90.206,90.206,0,0,1-14.725-.987q-.109,1.638-.218,3.482a94.97,94.97,0,0,0,19.654.988A9.412,9.412,0,0,1,78.508,64.331ZM99.465,55.47a50.94,50.94,0,0,0,9.2-3.218,22.848,22.848,0,0,1,.323-2.745c-.71-.193-1.421-.364-2.121-.519a49.088,49.088,0,0,1-7.159,2.567A18.309,18.309,0,0,1,99.465,55.47Z" transform="translate(-62.791 -47.214)" fill="#f88a48"/>
          <path id="Trazado_116898" data-name="Trazado 116898" d="M121.323,40.387c.373,5.565-.187,20.981,11.421,19.523,9.344-1.173,10.629-13.03,10.008-20.14a7.3,7.3,0,0,1,2.989.5s3.386,21.914-13.429,23.38c-15.434,1.345-13.777-22.3-13.777-22.3Z" transform="translate(-107.765 -39.761)" fill="#b74112"/>
        </g>
        <g id="Grupo_70254" data-name="Grupo 70254" transform="translate(1.401 61.439)">
          <g id="Grupo_70253" data-name="Grupo 70253">
            <g id="Grupo_70252" data-name="Grupo 70252">
              <g id="Grupo_70251" data-name="Grupo 70251">
                <path id="Trazado_116899" data-name="Trazado 116899" d="M133.862,359.373c-8,15.448-50.954,21.23-63.854,15.564.068.712.157,2.559.231,3.272,12.224,6.245,58.295.115,65.515-16.093C135.365,361.513,134.247,359.959,133.862,359.373Z" transform="translate(-70.008 -359.373)" fill="#b74112"/>
              </g>
            </g>
          </g>
        </g>
        <path id="Trazado_116900" data-name="Trazado 116900" d="M293.467,51.238c-.074,2.067-.882,12.094,2.445,16.612.135,1.421,1.036,5.956,1.036,5.956s-2.532,1.463-5.556-7.742c-2.412-7.34-1.331-17.553-1.331-17.553l3.63.607Z" transform="translate(-246.164 -46.83)" fill="#b74112"/>
        <path id="Trazado_116901" data-name="Trazado 116901" d="M67.773,62.275C65.8,79.32,64.943,79.484,64.089,84.722A119.917,119.917,0,0,1,64.3,63.966Z" transform="translate(-63.516 -57.947)" fill="#b74112"/>
      </g>
      <g id="Grupo_70258" data-name="Grupo 70258" transform="translate(555.718 26.132) rotate(-81)">
        <g id="Grupo_70257" data-name="Grupo 70257">
          <g id="Grupo_70256" data-name="Grupo 70256">
            <path id="Trazado_116902" data-name="Trazado 116902" d="M2998.579,64.505c-3.308,3.433-7.188,8.6-13.937,3.984s-3.773-14.324-3.773-14.324-11.039,14.517-.173,22.485S2998.579,64.505,2998.579,64.505Z" transform="translate(-2917.026 -50.463)" fill="#0095d0"/>
            <path id="Trazado_116903" data-name="Trazado 116903" d="M2995.907,68.49c6.748,4.613,10.628-.551,13.937-3.984,0,0-.441,1.266-1.275,3.035-3.289,4.152-8.09,7.514-13.776,3.345-5.239-3.841-5.518-9.33-4.408-13.986a26.888,26.888,0,0,1,1.749-2.733S2989.16,63.878,2995.907,68.49Z" transform="translate(-2928.291 -50.463)" fill="#b0e2f8"/>
            <path id="Trazado_116904" data-name="Trazado 116904" d="M2732.577,38.111c-2.394-.66-4.444-2.156-9.873-3.031-16.407-2.643-52.518,25.326-52.821,25.256-1.529,4.279,3.138,8.473,5.575,9.946.29.175,37.079-20.826,36.8-20.775-13.411,17.2-22.54,21.933-32.646,27.5-1.205,16.667,33.813,41.767,46.74,42.012,11.313-16.7,19.374-33.507,25.081-45.7,1.21,1.948-13.086,44.67-12.906,44.922,3.113,4.368,9.833,4.6,10,4.205,11.985-28.612,17.618-46.9,12.69-59.625-2.87-7.412-8.706-12.684-9.45-13.454C2739.89,76.953,2718.436,53.755,2732.577,38.111Z" transform="translate(-2669.582 -34.904)" fill="#5bc8f4"/>
            <path id="Trazado_116905" data-name="Trazado 116905" d="M2987.265,59.713c-2.781,4.456-9.165,17.505-18.158,11.138-7.238-5.125-3.038-15.541.637-21.171a6.886,6.886,0,0,0-2.7-.914s-12.548,16.693.765,25.381c12.219,7.972,21.344-12.395,21.344-12.395Z" transform="translate(-2905.534 -46.101)" fill="#b0e2f8"/>
          </g>
        </g>
        <path id="Trazado_116906" data-name="Trazado 116906" d="M2703.435,154.966a1.491,1.491,0,1,1-.235-2.1A1.491,1.491,0,0,1,2703.435,154.966Z" transform="translate(-2694.781 -129.93)" fill="#b0e2f8"/>
        <path id="Trazado_116907" data-name="Trazado 116907" d="M2700.616,197.374a1.491,1.491,0,1,1-.236-2.1A1.491,1.491,0,0,1,2700.616,197.374Z" transform="translate(-2692.504 -164.186)" fill="#b0e2f8"/>
        <path id="Trazado_116908" data-name="Trazado 116908" d="M2757.513,163.369a1.491,1.491,0,1,1-.236-2.1A1.493,1.493,0,0,1,2757.513,163.369Z" transform="translate(-2738.463 -136.719)" fill="#b0e2f8"/>
        <path id="Trazado_116909" data-name="Trazado 116909" d="M2775.909,106.1a1.492,1.492,0,1,1-.236-2.1A1.491,1.491,0,0,1,2775.909,106.1Z" transform="translate(-2753.323 -90.455)" fill="#b0e2f8"/>
        <path id="Trazado_116910" data-name="Trazado 116910" d="M2818.022,112.4a1.491,1.491,0,1,1-.236-2.095A1.491,1.491,0,0,1,2818.022,112.4Z" transform="translate(-2787.341 -95.545)" fill="#b0e2f8"/>
        <path id="Trazado_116911" data-name="Trazado 116911" d="M2864.748,61.6a1.491,1.491,0,1,1-.236-2.1A1.491,1.491,0,0,1,2864.748,61.6Z" transform="translate(-2825.085 -54.51)" fill="#b0e2f8"/>
        <path id="Trazado_116912" data-name="Trazado 116912" d="M2909.943,107.573a1.491,1.491,0,1,1-.235-2.1A1.491,1.491,0,0,1,2909.943,107.573Z" transform="translate(-2861.592 -91.648)" fill="#b0e2f8"/>
        <path id="Trazado_116913" data-name="Trazado 116913" d="M2954.551,56.322a1.492,1.492,0,1,1-.236-2.1A1.492,1.492,0,0,1,2954.551,56.322Z" transform="translate(-2897.624 -50.25)" fill="#b0e2f8"/>
        <path id="Trazado_116914" data-name="Trazado 116914" d="M2954.869,175.662a1.491,1.491,0,1,1-.235-2.1A1.49,1.49,0,0,1,2954.869,175.662Z" transform="translate(-2897.882 -146.648)" fill="#b0e2f8"/>
        <path id="Trazado_116915" data-name="Trazado 116915" d="M2908.976,172.546a1.491,1.491,0,1,1-.236-2.1A1.491,1.491,0,0,1,2908.976,172.546Z" transform="translate(-2860.811 -144.131)" fill="#b0e2f8"/>
        <path id="Trazado_116916" data-name="Trazado 116916" d="M2844.949,198.383a1.491,1.491,0,1,1-.236-2.1A1.491,1.491,0,0,1,2844.949,198.383Z" transform="translate(-2809.092 -165.002)" fill="#b0e2f8"/>
        <path id="Trazado_116917" data-name="Trazado 116917" d="M2895.9,240.263a1.491,1.491,0,1,1-.236-2.1A1.491,1.491,0,0,1,2895.9,240.263Z" transform="translate(-2850.245 -198.831)" fill="#b0e2f8"/>
        <path id="Trazado_116918" data-name="Trazado 116918" d="M2845.778,248.664a1.491,1.491,0,1,1-.235-2.1A1.492,1.492,0,0,1,2845.778,248.664Z" transform="translate(-2809.762 -205.618)" fill="#b0e2f8"/>
        <path id="Trazado_116919" data-name="Trazado 116919" d="M2783.367,239.814a1.492,1.492,0,1,1-.235-2.1A1.491,1.491,0,0,1,2783.367,239.814Z" transform="translate(-2759.348 -198.469)" fill="#b0e2f8"/>
        <path id="Trazado_116920" data-name="Trazado 116920" d="M2763,298a1.491,1.491,0,1,1-.235-2.1A1.492,1.492,0,0,1,2763,298Z" transform="translate(-2742.898 -245.469)" fill="#b0e2f8"/>
        <path id="Trazado_116921" data-name="Trazado 116921" d="M2836.776,309.709a1.491,1.491,0,1,1-.235-2.1A1.492,1.492,0,0,1,2836.776,309.709Z" transform="translate(-2802.491 -254.927)" fill="#b0e2f8"/>
        <path id="Trazado_116922" data-name="Trazado 116922" d="M2859.146,385.857a1.491,1.491,0,1,1-.236-2.1A1.491,1.491,0,0,1,2859.146,385.857Z" transform="translate(-2820.56 -316.437)" fill="#b0e2f8"/>
        <path id="Trazado_116923" data-name="Trazado 116923" d="M2890.378,301.608a1.491,1.491,0,1,1-.236-2.1A1.492,1.492,0,0,1,2890.378,301.608Z" transform="translate(-2845.788 -248.384)" fill="#b0e2f8"/>
        <path id="Trazado_116924" data-name="Trazado 116924" d="M2952.537,240.789a1.491,1.491,0,1,1-.236-2.1A1.492,1.492,0,0,1,2952.537,240.789Z" transform="translate(-2895.998 -199.256)" fill="#b0e2f8"/>
        <path id="Trazado_116925" data-name="Trazado 116925" d="M3028.973,208.727a1.491,1.491,0,1,1-.236-2.1A1.492,1.492,0,0,1,3028.973,208.727Z" transform="translate(-2957.741 -173.357)" fill="#b0e2f8"/>
        <path id="Trazado_116926" data-name="Trazado 116926" d="M3036.182,272.78a1.491,1.491,0,1,1-.235-2.1A1.491,1.491,0,0,1,3036.182,272.78Z" transform="translate(-2963.565 -225.097)" fill="#b0e2f8"/>
        <path id="Trazado_116927" data-name="Trazado 116927" d="M2968.671,298.317a1.491,1.491,0,1,1-.235-2.1A1.491,1.491,0,0,1,2968.671,298.317Z" transform="translate(-2909.031 -245.725)" fill="#b0e2f8"/>
        <path id="Trazado_116928" data-name="Trazado 116928" d="M2992.106,377.794a1.491,1.491,0,1,1-.235-2.1A1.49,1.49,0,0,1,2992.106,377.794Z" transform="translate(-2927.961 -309.925)" fill="#b0e2f8"/>
        <path id="Trazado_116929" data-name="Trazado 116929" d="M2919.832,354.876a1.491,1.491,0,1,1-.236-2.1A1.491,1.491,0,0,1,2919.832,354.876Z" transform="translate(-2869.58 -291.411)" fill="#b0e2f8"/>
        <path id="Trazado_116930" data-name="Trazado 116930" d="M2925.38,422.566a1.491,1.491,0,1,1-.236-2.1A1.492,1.492,0,0,1,2925.38,422.566Z" transform="translate(-2874.062 -346.09)" fill="#b0e2f8"/>
        <path id="Trazado_116931" data-name="Trazado 116931" d="M3025.352,323.68a1.491,1.491,0,1,1-.236-2.1A1.491,1.491,0,0,1,3025.352,323.68Z" transform="translate(-2954.816 -266.212)" fill="#b0e2f8"/>
        <path id="Trazado_116932" data-name="Trazado 116932" d="M2797.008,354.9a1.491,1.491,0,1,1-.236-2.1A1.492,1.492,0,0,1,2797.008,354.9Z" transform="translate(-2770.367 -291.43)" fill="#b0e2f8"/>
        <path id="Trazado_116933" data-name="Trazado 116933" d="M3074.875,218.053a1.491,1.491,0,1,1-.235-2.1A1.491,1.491,0,0,1,3074.875,218.053Z" transform="translate(-2994.82 -180.891)" fill="#b0e2f8"/>
        <path id="Trazado_116934" data-name="Trazado 116934" d="M3085.092,161.7a1.492,1.492,0,1,1-.236-2.1A1.491,1.491,0,0,1,3085.092,161.7Z" transform="translate(-3003.072 -135.368)" fill="#b0e2f8"/>
        <path id="Trazado_116935" data-name="Trazado 116935" d="M3126.755,170.122a1.491,1.491,0,1,1-.236-2.1A1.491,1.491,0,0,1,3126.755,170.122Z" transform="translate(-3036.727 -142.174)" fill="#b0e2f8"/>
        <path id="Trazado_116936" data-name="Trazado 116936" d="M3114.578,233.6a1.491,1.491,0,1,1-.235-2.1A1.491,1.491,0,0,1,3114.578,233.6Z" transform="translate(-3026.89 -193.446)" fill="#b0e2f8"/>
        <path id="Trazado_116937" data-name="Trazado 116937" d="M3128.436,289.309a1.491,1.491,0,1,1-.235-2.1A1.492,1.492,0,0,1,3128.436,289.309Z" transform="translate(-3038.084 -238.449)" fill="#b0e2f8"/>
        <path id="Trazado_116938" data-name="Trazado 116938" d="M3086.376,320.263a1.491,1.491,0,1,1-.236-2.1A1.491,1.491,0,0,1,3086.376,320.263Z" transform="translate(-3004.11 -263.453)" fill="#b0e2f8"/>
        <path id="Trazado_116939" data-name="Trazado 116939" d="M3107.494,366.88a1.491,1.491,0,1,1-.236-2.1A1.491,1.491,0,0,1,3107.494,366.88Z" transform="translate(-3021.168 -301.109)" fill="#b0e2f8"/>
        <path id="Trazado_116940" data-name="Trazado 116940" d="M3068.757,390.562a1.491,1.491,0,1,1-.237-2.1A1.491,1.491,0,0,1,3068.757,390.562Z" transform="translate(-2989.877 -320.238)" fill="#b0e2f8"/>
        <path id="Trazado_116941" data-name="Trazado 116941" d="M3058.555,459.333a1.491,1.491,0,1,1-.236-2.1A1.491,1.491,0,0,1,3058.555,459.333Z" transform="translate(-2981.636 -375.789)" fill="#b0e2f8"/>
      </g>
      <g id="Grupo_70265" data-name="Grupo 70265" transform="translate(317.704 -66.135)">
        <g id="Grupo_70263" data-name="Grupo 70263" transform="translate(0 0)">
          <g id="Grupo_70262" data-name="Grupo 70262" transform="translate(4.774)">
            <g id="Grupo_70261" data-name="Grupo 70261">
              <g id="Grupo_70260" data-name="Grupo 70260">
                <path id="Trazado_116953" data-name="Trazado 116953" d="M782.871,56.226c-4.051,2.4-6.4,2.093-9.962.508-4.854-2.161-7.059-7.3-7.059-7.3s-7.018,11.155,3.241,15.4C779.773,69.267,782.871,56.226,782.871,56.226Z" transform="translate(-704.554 -46.97)" fill="#f07a0f"/>
                <path id="Trazado_116954" data-name="Trazado 116954" d="M785.5,56.226c-4.051,2.4-6.4,2.093-9.962.508-4.854-2.161-7.059-7.3-7.059-7.3a18.052,18.052,0,0,0-1.717,3.88c.936,2.851,3.26,5.643,8.291,7.33,3.538,1.186,6.249,1.161,8.326.455A18.02,18.02,0,0,0,785.5,56.226Z" transform="translate(-707.182 -46.97)" fill="#3e6127"/>
                <path id="Trazado_116955" data-name="Trazado 116955" d="M515.423,38.255c-2.53-.325-4.832-1.551-10.48-1.656-17.071-.319-41.426,21.359-48,32.022-.993,4.979,4.416,8.165,7.109,9.311C472,77.121,487.7,57.924,496.4,52.782c-11.156,19.439-29.154,26.19-29.235,32.691,1.182,17.128,40.231,39.7,53.613,35.983,8.614-2.808,9.769-33.609,18.912-50.116,3.082,9.8-10.418,39.184-6.362,44.977,3.8,3.994,10.666,3.257,10.777,2.833,7.466-6.585,13.625-42.712,4.018-59.9-3.985-7.128-10.688-11.645-11.557-12.32C529.079,67.47,508.411,46.622,515.423,38.255Z" transform="translate(-456.824 -36.596)" fill="#ffc600"/>
                <path id="Trazado_116956" data-name="Trazado 116956" d="M766.541,48.648c-2.85,4.249-5.444,8.244-11.907,5.589-5.613-2.307-6.868-6.436-4.981-12.347-1.531-1.8-3.956-1.979-4.98-1.209-2.447,4.6-2.535,13.717,7.593,18.529,10.806,5.134,16.947-5.2,18.38-7.3C771.232,49.817,767.2,47.943,766.541,48.648Z" transform="translate(-688.233 -39.547)" fill="#657625"/>
              </g>
            </g>
          </g>
          <path id="Trazado_116957" data-name="Trazado 116957" d="M436.885,203.2s-3.621,3.1-4.83,4.037c-.606,3.267,3.233,8.493,6.63,9.066,3.164-2.2,5.42-4.167,5.42-4.167S437.225,207.715,436.885,203.2Z" transform="translate(-431.991 -171.17)" fill="#657625"/>
          <path id="Trazado_116958" data-name="Trazado 116958" d="M847.629,451.312s-1.328,4.928-1.708,6.133c2.221,1.637,8.216,4.509,10.866,2.995a27.758,27.758,0,0,0,1.62-6.294A18.171,18.171,0,0,1,847.629,451.312Z" transform="translate(-766.351 -371.591)" fill="#657625"/>
          <path id="Trazado_116959" data-name="Trazado 116959" d="M492.94,293.382s-2.81,3.031-4.8,5.665C486.971,307,515.576,336,543.013,335.9a17.055,17.055,0,0,0,3.033-7.025S509.9,327.238,492.94,293.382Z" transform="translate(-477.318 -244.02)" fill="#657625"/>
        </g>
        <path id="Trazado_116960" data-name="Trazado 116960" d="M717.073,210.292l-9.66,6.043.753,10.63,9.234-5.658Z" transform="translate(-654.469 -176.902)" fill="#657625"/>
        <path id="Trazado_116961" data-name="Trazado 116961" d="M634.709,162.441l-10.2,3.578-1.632,10.153,9.834-2.591Z" transform="translate(-586.185 -138.25)" fill="#657625"/>
        <path id="Trazado_116962" data-name="Trazado 116962" d="M803.557,245.938l-8.118,7.133,2.285,10.026,8.151-6.082Z" transform="translate(-725.574 -205.696)" fill="#657625"/>
        <path id="Trazado_116963" data-name="Trazado 116963" d="M683.154,210.628l-4.892,2.538-.1,5.244,4.781-2.014Z" transform="translate(-630.845 -177.174)" fill="#657625"/>
        <path id="Trazado_116964" data-name="Trazado 116964" d="M767.5,252.065l-4.214,3.552,1.06,5.137,4.221-3.016Z" transform="translate(-699.604 -210.645)" fill="#657625"/>
        <g id="Grupo_70264" data-name="Grupo 70264" transform="translate(17.724 0.042)">
          <path id="Trazado_116965" data-name="Trazado 116965" d="M882.525,280.661a19.946,19.946,0,0,0,14.375-.835c.007-.511.007-1.019.006-1.529a18.663,18.663,0,0,1-14.079.994C882.731,279.745,882.628,280.2,882.525,280.661Z" transform="translate(-813.642 -231.878)" fill="#5a8833"/>
          <path id="Trazado_116966" data-name="Trazado 116966" d="M590.064,93.592q.534-.484,1.057-.948a16.736,16.736,0,0,1-7.074-13.4c-.449.287-.895.582-1.34.878A18.413,18.413,0,0,0,590.064,93.592Z" transform="translate(-571.459 -71.089)" fill="#5a8833"/>
          <path id="Trazado_116967" data-name="Trazado 116967" d="M542.714,109.131q-.632.5-1.255,1.011a18.323,18.323,0,0,0,9.036,13.31l.06.032,1.063-1A16.7,16.7,0,0,1,542.714,109.131Z" transform="translate(-538.14 -95.23)" fill="#5a8833"/>
          <path id="Trazado_116968" data-name="Trazado 116968" d="M714.427,64.453a28.7,28.7,0,0,0,3.749,1.84c16.6,6.756,24.523-5.048,27.275-10.806q-.485-.619-.979-1.2c-2.663,6-9.958,17.147-25.771,10.712-17.933-7.3-12.328-25.022-11.2-28.085-.454-.042-.932-.077-1.443-.1C704.73,40.638,700.4,56.192,714.427,64.453Z" transform="translate(-669.74 -36.816)" fill="#5a8833"/>
          <path id="Trazado_116969" data-name="Trazado 116969" d="M887.714,328.035a21.534,21.534,0,0,1-15.246-3.234q-.187.717-.378,1.431.235.146.5.3a22.422,22.422,0,0,0,14.926,2.958C887.582,329.008,887.652,328.524,887.714,328.035Z" transform="translate(-805.213 -269.442)" fill="#5a8833"/>
          <path id="Trazado_116970" data-name="Trazado 116970" d="M551.144,238.863l-1.075.889c2.492,3.446,12.065,15.885,25.8,23.975,8.083,4.761,17.609,8,27.972,7.017.13-.471.26-.951.389-1.435C576.6,272.317,554.858,244.02,551.144,238.863Z" transform="translate(-545.094 -200.024)" fill="#5a8833"/>
          <path id="Trazado_116971" data-name="Trazado 116971" d="M579.256,298.85c.235-.426.466-.873.69-1.352-34.268-2.093-52.46-32.234-54.729-36.242q-.549.516-1.025,1.011c2.07,3.571,11.293,18.287,27.751,27.98A62.042,62.042,0,0,0,579.256,298.85Z" transform="translate(-524.191 -218.112)" fill="#5a8833"/>
        </g>
      </g>
    </g>
  </g>
</svg>
