<svg xmlns="http://www.w3.org/2000/svg" width="84" height="84" viewBox="0 0 84 84">
  <g id="Grupo_70909" data-name="Grupo 70909" transform="translate(-1161 -4593)" opacity="0.7">
    <rect id="Rectángulo_9415" data-name="Rectángulo 9415" width="84" height="84" transform="translate(1161 4593)" fill="none"/>
    <g id="Grupo_70908" data-name="Grupo 70908" transform="translate(1010.663 4724.916)">
      <g id="Grupo_70906" data-name="Grupo 70906" transform="translate(191.1 -124.287)">
        <path id="Trazado_118275" data-name="Trazado 118275" d="M337.377-122.7l-25.962,4.332-.032,71.082h26.122s4.672-16.826,6.632-22.3c1.849-5.168,8.515-20.239,8.515-20.239s-10.483.128-11.81-10.44Z" transform="translate(-310.984 123.1)" fill="#bf3976"/>
        <circle id="Elipse_5434" data-name="Elipse 5434" cx="0.399" cy="0.399" r="0.399" transform="translate(0.04 4.402)" fill="#bf3976"/>
        <circle id="Elipse_5435" data-name="Elipse 5435" cx="0.399" cy="0.399" r="0.399" transform="translate(25.909 0)" fill="#bf3976"/>
        <circle id="Elipse_5436" data-name="Elipse 5436" cx="0.399" cy="0.399" r="0.399" transform="translate(29.489 22.377)" fill="#bf3976"/>
        <circle id="Elipse_5437" data-name="Elipse 5437" cx="0.399" cy="0.399" r="0.399" transform="translate(41.269 32.835)" fill="#bf3976"/>
        <circle id="Elipse_5438" data-name="Elipse 5438" cx="0.399" cy="0.399" r="0.399" transform="translate(26.074 75.478)" fill="#bf3976"/>
        <circle id="Elipse_5439" data-name="Elipse 5439" cx="0.399" cy="0.399" r="0.399" transform="translate(0 75.478)" fill="#bf3976"/>
        <circle id="Elipse_5440" data-name="Elipse 5440" cx="0.399" cy="0.399" r="0.399" transform="translate(0 32.872)" fill="#bf3976"/>
      </g>
      <g id="Grupo_70907" data-name="Grupo 70907" transform="translate(151.243 -119.9)">
        <path id="Trazado_118276" data-name="Trazado 118276" d="M152.83-105.467h26.529l1.455,22.507s.011,5.819,6,6.033c0,0-5.366,15.467-6.766,20.817-1.393,5.326-4.407,21.886-4.407,21.886H152.83Z" transform="translate(-152.431 105.811)" fill="#bf3976"/>
        <circle id="Elipse_5441" data-name="Elipse 5441" cx="0.399" cy="0.399" r="0.399" transform="translate(0 0)" fill="#bf3976"/>
        <circle id="Elipse_5442" data-name="Elipse 5442" cx="0.399" cy="0.399" r="0.399" transform="translate(26.529 0)" fill="#bf3976"/>
        <circle id="Elipse_5443" data-name="Elipse 5443" cx="0.399" cy="0.399" r="0.399" transform="translate(27.983 22.507)" fill="#bf3976"/>
        <circle id="Elipse_5444" data-name="Elipse 5444" cx="0.399" cy="0.399" r="0.399" transform="translate(33.979 28.485)" fill="#bf3976"/>
        <circle id="Elipse_5445" data-name="Elipse 5445" cx="0.399" cy="0.399" r="0.399" transform="translate(0 28.485)" fill="#bf3976"/>
        <circle id="Elipse_5446" data-name="Elipse 5446" cx="0.399" cy="0.399" r="0.399" transform="translate(22.772 71.187)" fill="#bf3976"/>
        <circle id="Elipse_5447" data-name="Elipse 5447" cx="0.399" cy="0.399" r="0.399" transform="translate(0 71.187)" fill="#bf3976"/>
      </g>
    </g>
  </g>
</svg>
